<svg width="284px" height="95px" viewBox="0 0 284 95" version="1.1" xmlns="http://www.w3.org/2000/svg"
     xmlns:xlink="http://www.w3.org/1999/xlink">
    <g id="Site" stroke="none" stroke-width="1" fill="none" fill-rule="evenodd">
        <g id="iPhone-Site" transform="translate(-181.000000, -927.000000)" fill-rule="nonzero">
            <g id="Group-3" transform="translate(181.000000, 927.000000)">
                <g id="Group">
                    <g id="Path">
                        <path d="M261.384012,2.38957382e-16 L22.6287567,2.38957382e-16 C21.7584637,2.38957382e-16 20.8986133,2.38957382e-16 20.0306224,0.00505873356 C19.3040334,0.00980871812 18.5832352,0.0236074233 17.8496687,0.0352211355 C16.2560231,0.0539878581 14.6661252,0.194289236 13.0937916,0.454906022 C11.5236665,0.721196397 10.0027268,1.22322966 8.58241308,1.94402618 C7.1638365,2.67092038 5.86764252,3.61544488 4.74085396,4.74333458 C3.60814996,5.86805254 2.66395371,7.16807435 1.944572,8.59341082 C1.22320483,10.0159104 0.723006509,11.5402497 0.461252906,13.1137811 C0.197010743,14.6853252 0.0548196305,16.2749921 0.0359556549,17.8685157 C0.0139313329,18.5966883 0.0116054886,19.3272834 0,20.0555511 L0,74.9517402 C0.0116054886,75.6891753 0.0139313329,76.4035729 0.0359556549,77.1412455 C0.0548254152,78.73469 0.19701653,80.3242776 0.461252906,81.8957426 C0.722283728,83.4701939 1.22251163,84.9954083 1.944572,86.4184404 C2.66362707,87.8391676 3.6079561,89.1339263 4.74085396,90.2523904 C5.8633701,91.3852951 7.16040191,92.3304622 8.58241308,93.0517938 C10.002716,93.7745195 11.5234918,94.279541 13.0937916,94.549939 C14.6663925,94.8084681 16.2561269,94.9488265 17.8496687,94.9698376 C18.5832352,94.9859875 19.3040334,94.99525 20.0306224,94.99525 C20.8985895,95 21.7585111,95 22.6287567,95 L261.384012,95 C262.23698,95 263.103713,95 263.95668,94.99525 C264.679828,94.99525 265.421488,94.9859875 266.144635,94.9698376 C267.735164,94.949944 269.321906,94.8095766 270.891256,94.549939 C272.466622,94.2776375 273.99285,93.7727498 275.420008,93.0517938 C276.840736,92.3300446 278.136571,91.3849033 279.258126,90.2523904 C280.3881,89.1295459 281.334446,87.8357343 282.062429,86.4184404 C282.779071,84.9943731 283.274538,83.4692806 283.531746,81.8957426 C283.796405,80.324062 283.943642,78.734828 283.972232,77.1412455 C283.981488,76.4035729 283.981488,75.6891753 283.981488,74.9517402 C284,74.0889055 284,73.2308207 284,72.3539736 L284,22.6485439 C284,21.778798 284,20.9160108 283.981488,20.0555511 C283.981488,19.3272834 283.981488,18.5966883 283.972232,17.8684207 C283.943648,16.2747592 283.796411,14.6854457 283.531746,13.1136861 C283.273821,11.541065 282.778384,10.0168465 282.062429,8.59331582 C280.597442,5.73638079 278.274396,3.41085798 275.420008,1.94381243 C273.992846,1.2247773 272.466455,0.722877374 270.891256,0.454692272 C269.322177,0.192927233 267.735271,0.0525770207 266.144635,0.0348886366 C265.421488,0.0232986743 264.679828,0.00938121951 263.95668,0.00474998456 C263.103713,2.38957382e-16 262.23698,2.38957382e-16 261.384012,2.38957382e-16 L261.384012,2.38957382e-16 Z"
                              fill="#000000"></path>
                        <path d="M20.0422041,92.9218818 C19.3191039,92.9218818 18.6134712,92.9126193 17.8960431,92.8964693 C16.4098328,92.8770912 14.9270961,92.7476168 13.4599935,92.5091081 C12.0919942,92.2733382 10.7667707,91.8347634 9.52803494,91.2078498 C8.3006577,90.5861307 7.18119099,89.770915 6.2125201,88.7934327 C5.22982791,87.8274645 4.41169177,86.7071064 3.79053295,85.476756 C3.16252949,84.2384092 2.72791372,82.9110508 2.50182532,81.5409187 C2.25766947,80.0686964 2.12557104,78.5800473 2.10666911,77.0878082 C2.09162232,76.5869223 2.07192384,74.9192028 2.07192384,74.9192028 L2.07192384,20.0555511 C2.07192384,20.0555511 2.09290391,18.4134577 2.10678778,17.9310255 C2.12488623,16.4411502 2.25621651,14.9548113 2.49964187,13.4848737 C2.7261476,12.1109883 3.16109983,10.7798023 3.78944122,9.537399 C4.40831713,8.30789839 5.22191115,7.18670359 6.1986837,6.21727854 C7.17435838,5.23864259 8.29740605,4.41922917 9.52687202,3.78892019 C10.7627608,3.16402077 12.0854798,2.72853968 13.4507138,2.49706688 C14.9226347,2.25616225 16.4105189,2.12591754 17.9018815,2.10742565 L20.0433671,2.078427 L263.945051,2.078427 L266.112121,2.1085894 C267.589918,2.12616243 269.064286,2.25524518 270.522681,2.49473939 C271.901736,2.72911567 273.23824,3.16763535 274.488246,3.79587891 C276.951312,5.06613415 278.955461,7.07579776 280.219791,9.54319398 C280.838103,10.7770204 281.266346,12.097348 281.489987,13.4593663 C281.736311,14.9413647 281.874171,16.4393839 281.902468,17.9414754 C281.909351,18.6140733 281.909351,19.3365459 281.909351,20.0555511 C281.9281,20.9461732 281.9281,21.7938792 281.9281,22.6485439 L281.9281,72.3539736 C281.9281,73.2168083 281.9281,74.0587431 281.909351,74.9075653 C281.909351,75.6799128 281.909351,76.387423 281.900095,77.1155956 C281.87241,78.590883 281.736848,80.0621636 281.494496,81.5176438 C281.273042,82.8976596 280.840792,84.2353787 280.212908,85.4838809 C279.587359,86.7008772 278.773921,87.8115306 277.802574,88.7749077 C276.833032,89.757643 275.711589,90.5776283 274.481363,91.2033373 C273.23482,91.8350703 271.900283,92.275267 270.522681,92.5091081 C269.05569,92.7488896 267.572811,92.8783723 266.086489,92.8964693 C265.391347,92.9126193 264.663452,92.9218818 263.95668,92.9218818 L261.384012,92.9266317 L20.0422041,92.9218818 Z"
                              fill="#FFFFFF"></path>
                    </g>
                    <g id="_Group_" transform="translate(22.805266, 18.636683)" fill="#000000">
                        <g id="_Group_3">
                            <path d="M36.5196898,28.6006783 C36.5736357,24.4108274 38.7686389,20.540681 42.3356772,18.3461504 C40.0751711,15.1154626 36.4247088,13.1405723 32.4855128,13.0172377 C28.341143,12.5819016 24.3233893,15.4989146 22.2114514,15.4989146 C20.0586926,15.4989146 16.8071148,13.0604626 13.3056748,13.1325436 C8.69872093,13.2814913 4.50790743,15.8391259 2.26652928,19.8696842 C-2.5064593,28.1394073 1.05376759,40.293169 5.6259741,46.9778461 C7.91356067,50.2511317 10.5870713,53.9074561 14.0853548,53.7778052 C17.5086179,53.6357094 18.787144,51.5933586 22.9192913,51.5933586 C27.0131096,51.5933586 28.2126045,53.7778052 31.7818737,53.6953692 C35.4552126,53.6357094 37.7695464,50.4075487 39.976915,47.1032694 C41.6205438,44.7709402 42.8853127,42.1932075 43.7243724,39.4655555 C39.3615705,37.6189976 36.5247671,33.3410132 36.5196898,28.6006783 Z"
                                  id="_Path_"></path>
                            <path d="M29.7780639,8.62096073 C31.7809267,6.21491593 32.7676656,3.12234324 32.5287308,0 C29.4688299,0.321609411 26.642338,1.78507805 24.6124348,4.09880918 C22.607996,6.38161873 21.5925529,9.36814621 21.7897616,12.4005947 C24.8906777,12.4325368 27.8349303,11.0394752 29.7780639,8.62096073 Z"
                                  id="_Path_2"></path>
                        </g>
                        <g id="Group" transform="translate(58.900174, 23.807208)">
                            <path d="M18.6898206,22.0128772 L7.45599243,22.0128772 L4.75820286,29.9844201 L0,29.9844201 L10.6405005,0.491765902 L15.5841064,0.491765902 L26.2246069,29.9844201 L21.3852843,29.9844201 L18.6898206,22.0128772 Z M8.61948419,18.3344179 L17.5241454,18.3344179 L13.1344227,5.39719371 L13.0114852,5.39719371 L8.61948419,18.3344179 Z"
                                  id="Shape"></path>
                            <path d="M49.2044711,19.2343262 C49.2044711,25.9163195 45.6305977,30.2093793 40.2373444,30.2093793 C37.4496189,30.3553098 34.8237338,28.894134 33.4766608,26.4473915 L33.3746084,26.4473915 L33.3746084,37.0977594 L28.9640481,37.0977594 L28.9640481,8.48190493 L33.2332303,8.48190493 L33.2332303,12.0583108 L33.3143501,12.0583108 C34.7212683,9.62690752 37.3499849,8.1663607 40.1561535,8.25692192 C45.6097363,8.25694566 49.2044711,12.5708816 49.2044711,19.2343262 Z M44.6710683,19.2343262 C44.6710683,14.8809654 42.4229024,12.0188859 38.9927329,12.0188859 C35.6228218,12.0188859 33.3561203,14.9412427 33.3561203,19.2343262 C33.3561203,23.5668347 35.6228218,26.4683152 38.9927329,26.4683152 C42.4229261,26.4683152 44.6710683,23.6271357 44.6710683,19.2343262 L44.6710683,19.2343262 Z"
                                  id="Shape"></path>
                            <path d="M72.855294,19.2343262 C72.855294,25.9163195 69.2802576,30.2093793 63.8870043,30.2093793 C61.0992788,30.3553098 58.4733937,28.894134 57.1263207,26.4473915 L57.0242684,26.4473915 L57.0242684,37.0977594 L52.613708,37.0977594 L52.613708,8.48190493 L56.8828902,8.48190493 L56.8828902,12.0583108 L56.96401,12.0583108 C58.3709282,9.62690752 60.9996448,8.1663607 63.8058134,8.25692192 C69.25942,8.25694566 72.855294,12.5708816 72.855294,19.2343262 Z M68.3207519,19.2343262 C68.3207519,14.8809654 66.072586,12.0188859 62.6424166,12.0188859 C59.2725054,12.0188859 57.005804,14.9412427 57.005804,19.2343262 C57.005804,23.5668347 59.2725054,26.4683152 62.6424166,26.4683152 C66.072586,26.4683152 68.3207519,23.6271357 68.3207519,19.2343262 L68.3207519,19.2343262 Z"
                                  id="Shape"></path>
                            <path d="M88.483449,21.767018 C88.8102539,24.6917023 91.6494453,26.6120023 95.5292147,26.6120023 C99.2467921,26.6120023 101.921394,24.6916073 101.921394,22.0545108 C101.921394,19.765327 100.308279,18.3946477 96.4887442,17.4552908 L92.6692094,16.5345063 C87.2574205,15.226408 84.745034,12.6936925 84.745034,8.5838396 C84.745034,3.49522864 89.1764557,0 95.4666543,0 C101.696594,0 105.965777,3.49522864 106.109481,8.5838396 L101.65715,8.5838396 C101.390627,5.64060667 98.9593605,3.86401744 95.4063485,3.86401744 C91.8533364,3.86401744 89.4220934,5.6615066 89.4220934,8.2777031 C89.4220934,10.3627801 90.9749505,11.5897011 94.7736239,12.5289393 L98.0206924,13.3267942 C104.067532,14.757822 106.577592,17.1885316 106.577592,21.5024201 C106.577592,27.0200972 102.187893,30.475901 95.2023149,30.475901 C88.6664313,30.475901 84.2535688,27.1012744 83.9684868,21.7668043 L88.483449,21.767018 Z"
                                  id="Path"></path>
                            <path d="M116.100999,3.39329397 L116.100999,8.48190493 L120.187081,8.48190493 L120.187081,11.9771336 L116.100999,11.9771336 L116.100999,23.8312188 C116.100999,25.6727641 116.919151,26.53092 118.715343,26.53092 C119.200428,26.5224554 119.684727,26.4883664 120.166219,26.4287954 L120.166219,29.9031478 C119.358649,30.0541488 118.537822,30.1225365 117.716417,30.1072547 C113.366139,30.1072547 111.669578,28.47212 111.669578,24.301966 L111.669578,11.9771336 L108.545352,11.9771336 L108.545352,8.48190493 L111.66953,8.48190493 L111.66953,3.39329397 L116.100999,3.39329397 Z"
                                  id="Path"></path>
                            <path d="M122.551159,19.2343262 C122.551159,12.468852 126.532933,8.21752079 132.742036,8.21752079 C138.971976,8.21752079 142.935215,12.468757 142.935215,19.2343262 C142.935215,26.0183729 138.992838,30.2511317 132.742036,30.2511317 C126.493513,30.2511317 122.551159,26.0183492 122.551159,19.2343262 Z M138.441209,19.2343262 C138.441209,14.5933538 136.315886,11.8542277 132.742012,11.8542277 C129.168139,11.8542277 127.042815,14.61423 127.042815,19.2343262 C127.042815,23.8938473 129.168139,26.612121 132.742012,26.612121 C136.315886,26.612121 138.441209,23.8938473 138.441209,19.2343262 L138.441209,19.2343262 Z"
                                  id="Shape"></path>
                            <path d="M146.571601,8.48190493 L150.778223,8.48190493 L150.778223,12.141768 L150.880275,12.141768 C151.466901,9.78574816 153.624137,8.16425341 156.048705,8.25689817 C156.556983,8.25512222 157.063858,8.31036101 157.559839,8.42158013 L157.559839,12.5499817 C156.91817,12.3537677 156.248798,12.2636795 155.578125,12.2832701 C154.281463,12.2306294 153.026581,12.7477586 152.142975,13.6988747 C151.259369,14.6499908 150.835317,15.9400712 150.982162,17.230379 L150.982162,29.9843726 L146.571601,29.9843726 L146.571601,8.48190493 Z"
                                  id="Path"></path>
                            <path d="M177.895147,23.6688643 C177.30182,27.5722829 173.503123,30.2511079 168.642939,30.2511079 C162.392137,30.2511079 158.512344,26.0600778 158.512344,19.3363559 C158.512344,12.5917578 162.412998,8.21749704 168.457535,8.21749704 C174.402394,8.21749704 178.140832,12.3041463 178.140832,18.8237851 L178.140832,20.3359902 L162.964627,20.3359902 L162.964627,20.6027018 C162.822934,22.2035217 163.375308,23.7881114 164.481243,24.9534025 C165.587178,26.1186936 167.140081,26.7523721 168.744943,26.6932507 C170.885295,26.8939367 172.903228,25.6640186 173.707109,23.6688406 L177.895147,23.6688643 Z M162.985447,17.2513027 L173.727946,17.2513027 C173.807987,15.8128352 173.284746,14.406188 172.284285,13.3702365 C171.283825,12.3342849 169.896855,11.7629577 168.457535,11.7939029 C167.00683,11.7852395 165.612769,12.3568346 164.585208,13.3816405 C163.557647,14.4064464 162.98173,15.7995481 162.985447,17.2513027 L162.985447,17.2513027 Z"
                                  id="Shape"></path>
                        </g>
                    </g>
                </g>
                <g id="Завантажити-в" transform="translate(84.000000, 20.000000)" fill="#000000">
                    <path d="M3.27352876,8.15895372 L5.43861583,8.15895372 C6.55051062,8.15895372 7.41378297,8.39034205 8.02843289,8.85311871 C8.6430828,9.31589537 8.95040776,9.95975855 8.95040776,10.7847082 L8.95040776,10.804829 C8.95040776,11.314554 8.80883109,11.7588867 8.52567776,12.137827 C8.24252443,12.5167673 7.8436926,12.8101945 7.32918228,13.0181087 C6.81467196,13.2260228 6.20865476,13.3299799 5.5111307,13.3299799 C4.80670046,13.3299799 4.19205055,13.2411133 3.66718096,13.0633803 C3.14231137,12.8856472 2.72448755,12.6274313 2.4137095,12.2887324 C2.10293145,11.9500335 1.91646462,11.5392354 1.85430901,11.056338 L1.84394975,10.9758551 L-1.42108547e-14,10.9758551 L0.0103592682,11.1066398 C0.0725148777,11.8779343 0.336676218,12.5570087 0.802843289,13.1438632 C1.26901036,13.7307176 1.90610536,14.1867874 2.71412828,14.5120724 C3.5221512,14.8373575 4.46139152,15 5.53184924,15 C6.54705753,15 7.45522004,14.8172368 8.25633679,14.4517103 C9.05745353,14.0861838 9.69109544,13.5898726 10.1572625,12.9627767 C10.6234296,12.3356808 10.8565131,11.6331321 10.8565131,10.8551308 L10.8565131,10.8350101 C10.8565131,9.85580148 10.5733598,9.04258887 10.0070531,8.39537223 C9.44074646,7.7481556 8.66034825,7.36083166 7.6658585,7.2334004 L7.6658585,7.15291751 C8.48769378,6.95841717 9.15241349,6.5509725 9.66001763,5.9305835 C10.1676218,5.3101945 10.4214238,4.59758551 10.4214238,3.79275654 L10.4214238,3.77263581 C10.4214238,3.03487592 10.215965,2.38262911 9.80504739,1.81589537 C9.39412975,1.24916164 8.82436999,0.804828974 8.09576813,0.482897384 C7.36716626,0.160965795 6.5228859,0 5.56292704,0 C4.56153111,0 3.68617295,0.15258216 2.93685255,0.457746479 C2.18753214,0.762910798 1.59532731,1.20053655 1.16023804,1.77062374 C0.725148777,2.34071093 0.476526339,3.02481556 0.41437073,3.82293763 L0.404011461,3.9637827 L2.24796121,3.9637827 L2.26867974,3.81287726 C2.33083535,3.36351442 2.49831019,2.97954393 2.77110425,2.66096579 C3.04389832,2.34238766 3.4099258,2.09758551 3.86918669,1.92655936 C4.32844758,1.7555332 4.86885607,1.67002012 5.49041217,1.67002012 C6.1326868,1.67002012 6.67827492,1.76056338 7.12717655,1.9416499 C7.57607817,2.12273642 7.91966057,2.38262911 8.15792374,2.72132797 C8.39618691,3.06002683 8.51531849,3.46411804 8.51531849,3.93360161 L8.51531849,3.95372233 C8.51531849,4.70489604 8.22698553,5.32193159 7.65031959,5.80482897 C7.07365366,6.28772636 6.30879436,6.52917505 5.35574168,6.52917505 L3.27352876,6.52917505 L3.27352876,8.15895372 Z"
                          id="Path"></path>
                    <path d="M16.336566,14.9597586 C16.8199985,14.9597586 17.2775329,14.8809524 17.7091691,14.72334 C18.1408052,14.5657277 18.5292778,14.3443997 18.8745867,14.0593561 C19.2198957,13.7743125 19.4961428,13.4406439 19.7033282,13.0583501 L19.7447653,13.0583501 L19.7447653,14.7585513 L21.5472779,14.7585513 L21.5472779,7.52515091 C21.5472779,6.82763246 21.3780766,6.222334 21.0396738,5.70925553 C20.701271,5.19617706 20.2230181,4.79879276 19.6049151,4.51710262 C18.9868121,4.23541247 18.2530306,4.0945674 17.4035706,4.0945674 C16.5610168,4.0945674 15.832415,4.23373575 15.217765,4.51207243 C14.6031151,4.79040912 14.1214092,5.16431925 13.7726471,5.63380282 C13.4238851,6.10328638 13.2218794,6.62642522 13.1666299,7.20321932 L13.1562707,7.3138833 L14.8966277,7.3138833 L14.9173463,7.22334004 C15.0209389,6.75385647 15.2851003,6.37323944 15.7098303,6.08148893 C16.1345603,5.78973843 16.6922342,5.64386318 17.3828521,5.64386318 C18.1356256,5.64386318 18.7174712,5.82662643 19.1283888,6.19215292 C19.5393064,6.55767941 19.7447653,7.05902079 19.7447653,7.69617706 L19.7447653,10.7847082 C19.7447653,11.2877264 19.6118213,11.7404427 19.3459334,12.1428571 C19.0800456,12.5452716 18.7209243,12.862173 18.2685695,13.0935614 C17.8162148,13.3249497 17.3068841,13.4406439 16.7405775,13.4406439 C16.0913967,13.4406439 15.5717067,13.2930919 15.1815076,12.9979879 C14.7913085,12.702884 14.5962089,12.3038229 14.5962089,11.8008048 L14.5962089,11.7806841 C14.5962089,11.2910798 14.7947616,10.8987257 15.1918669,10.6036217 C15.5889722,10.3085178 16.1466461,10.1408451 16.8648887,10.1006036 L20.6460216,9.87927565 L20.6460216,8.52112676 L16.6577033,8.74245473 C15.4214973,8.80952381 14.4615385,9.10965795 13.7778268,9.64285714 C13.0941151,10.1760563 12.7522592,10.8886653 12.7522592,11.7806841 L12.7522592,11.8008048 C12.7522592,12.4312542 12.9024686,12.9845741 13.2028874,13.4607646 C13.5033061,13.9369551 13.9228565,14.305835 14.4615385,14.5674044 C15.0002204,14.8289738 15.6252296,14.9597586 16.336566,14.9597586 Z"
                          id="Path"></path>
                    <path d="M24.3132026,14.7585513 L28.9541547,14.7585513 C30.1005804,14.7585513 31.0035633,14.4885983 31.6631034,13.9486922 C32.3226435,13.408786 32.6524135,12.6794098 32.6524135,11.7605634 L32.6524135,11.7404427 C32.6524135,11.3112005 32.5591801,10.9289068 32.3727132,10.5935614 C32.1862464,10.258216 31.9255382,9.98323273 31.5905885,9.76861167 C31.2556388,9.55399061 30.8602601,9.41649899 30.4044523,9.35613682 L30.4044523,9.27565392 C30.9016972,9.1750503 31.3212475,8.90677398 31.6631034,8.47082495 C32.0049592,8.03487592 32.1758872,7.54862508 32.1758872,7.01207243 L32.1758872,6.99195171 C32.1758872,6.1602951 31.8858276,5.50301811 31.3057086,5.02012072 C30.7255896,4.53722334 29.931379,4.29577465 28.9230769,4.29577465 L24.3132026,4.29577465 L24.3132026,14.7585513 Z M26.1157152,13.3098592 L26.1157152,10.1207243 L28.4776284,10.1207243 C29.2649328,10.1207243 29.8502314,10.2498323 30.2335244,10.5080483 C30.6168173,10.7662643 30.8084637,11.1636486 30.8084637,11.7002012 L30.8084637,11.7203219 C30.8084637,12.2434608 30.6375358,12.6391683 30.29568,12.9074447 C29.9538241,13.175721 29.4548527,13.3098592 28.7987657,13.3098592 L26.1157152,13.3098592 Z M26.1157152,8.67203219 L26.1157152,5.7444668 L28.6537359,5.7444668 C29.2200426,5.7444668 29.6499522,5.86519115 29.9434648,6.10663984 C30.2369774,6.34808853 30.3837337,6.70355466 30.3837337,7.17303823 L30.3837337,7.19315895 C30.3837337,7.69617706 30.219712,8.06841046 29.8916685,8.30985915 C29.563625,8.55130785 29.0612005,8.67203219 28.384395,8.67203219 L26.1157152,8.67203219 Z"
                          id="Shape"></path>
                    <path d="M38.1531849,14.9597586 C38.6366174,14.9597586 39.0941518,14.8809524 39.525788,14.72334 C39.9574241,14.5657277 40.3458967,14.3443997 40.6912056,14.0593561 C41.0365146,13.7743125 41.3127617,13.4406439 41.5199471,13.0583501 L41.5613842,13.0583501 L41.5613842,14.7585513 L43.3638968,14.7585513 L43.3638968,7.52515091 C43.3638968,6.82763246 43.1946955,6.222334 42.8562927,5.70925553 C42.5178899,5.19617706 42.0396371,4.79879276 41.4215341,4.51710262 C40.803431,4.23541247 40.0696495,4.0945674 39.2201896,4.0945674 C38.3776357,4.0945674 37.6490339,4.23373575 37.034384,4.51207243 C36.419734,4.79040912 35.9380281,5.16431925 35.589266,5.63380282 C35.240504,6.10328638 35.0384983,6.62642522 34.9832488,7.20321932 L34.9728896,7.3138833 L36.7132466,7.3138833 L36.7339652,7.22334004 C36.8375579,6.75385647 37.1017192,6.37323944 37.5264492,6.08148893 C37.9511792,5.78973843 38.5088531,5.64386318 39.199471,5.64386318 C39.9522445,5.64386318 40.5340901,5.82662643 40.9450077,6.19215292 C41.3559254,6.55767941 41.5613842,7.05902079 41.5613842,7.69617706 L41.5613842,10.7847082 C41.5613842,11.2877264 41.4284402,11.7404427 41.1625523,12.1428571 C40.8966645,12.5452716 40.5375432,12.862173 40.0851885,13.0935614 C39.6328337,13.3249497 39.123503,13.4406439 38.5571964,13.4406439 C37.9080156,13.4406439 37.3883256,13.2930919 36.9981265,12.9979879 C36.6079274,12.702884 36.4128279,12.3038229 36.4128279,11.8008048 L36.4128279,11.7806841 C36.4128279,11.2910798 36.6113805,10.8987257 37.0084858,10.6036217 C37.4055911,10.3085178 37.963265,10.1408451 38.6815076,10.1006036 L42.4626405,9.87927565 L42.4626405,8.52112676 L38.4743222,8.74245473 C37.2381162,8.80952381 36.2781574,9.10965795 35.5944457,9.64285714 C34.910734,10.1760563 34.5688781,10.8886653 34.5688781,11.7806841 L34.5688781,11.8008048 C34.5688781,12.4312542 34.7190875,12.9845741 35.0195063,13.4607646 C35.3199251,13.9369551 35.7394754,14.305835 36.2781574,14.5674044 C36.8168393,14.8289738 37.4418485,14.9597586 38.1531849,14.9597586 Z"
                          id="Path"></path>
                    <polygon id="Path"
                             points="53.2052017 14.7585513 55.0077143 14.7585513 55.0077143 4.29577465 53.2052017 4.29577465 53.2052017 8.61167002 47.9323341 8.61167002 47.9323341 4.29577465 46.1298215 4.29577465 46.1298215 14.7585513 47.9323341 14.7585513 47.9323341 10.0603622 53.2052017 10.0603622"></polygon>
                    <polygon id="Path"
                             points="65.6984792 4.29577465 56.9552568 4.29577465 56.9552568 5.7444668 60.4256116 5.7444668 60.4256116 14.7585513 62.2281243 14.7585513 62.2281243 5.7444668 65.6984792 5.7444668"></polygon>
                    <path d="M70.3912277,14.9597586 C70.8746602,14.9597586 71.3321945,14.8809524 71.7638307,14.72334 C72.1954669,14.5657277 72.5839395,14.3443997 72.9292484,14.0593561 C73.2745573,13.7743125 73.5508045,13.4406439 73.7579899,13.0583501 L73.7994269,13.0583501 L73.7994269,14.7585513 L75.6019396,14.7585513 L75.6019396,7.52515091 C75.6019396,6.82763246 75.4327382,6.222334 75.0943355,5.70925553 C74.7559327,5.19617706 74.2776798,4.79879276 73.6595768,4.51710262 C73.0414738,4.23541247 72.3076923,4.0945674 71.4582323,4.0945674 C70.6156785,4.0945674 69.8870766,4.23373575 69.2724267,4.51207243 C68.6577768,4.79040912 68.1760708,5.16431925 67.8273088,5.63380282 C67.4785468,6.10328638 67.276541,6.62642522 67.2212916,7.20321932 L67.2109323,7.3138833 L68.9512894,7.3138833 L68.9720079,7.22334004 C69.0756006,6.75385647 69.339762,6.37323944 69.764492,6.08148893 C70.189222,5.78973843 70.7468959,5.64386318 71.4375138,5.64386318 C72.1902873,5.64386318 72.7721328,5.82662643 73.1830505,6.19215292 C73.5939681,6.55767941 73.7994269,7.05902079 73.7994269,7.69617706 L73.7994269,10.7847082 C73.7994269,11.2877264 73.666483,11.7404427 73.4005951,12.1428571 C73.1347072,12.5452716 72.7755859,12.862173 72.3232312,13.0935614 C71.8708765,13.3249497 71.3615458,13.4406439 70.7952391,13.4406439 C70.1460583,13.4406439 69.6263684,13.2930919 69.2361693,12.9979879 C68.8459702,12.702884 68.6508706,12.3038229 68.6508706,11.8008048 L68.6508706,11.7806841 C68.6508706,11.2910798 68.8494233,10.8987257 69.2465285,10.6036217 C69.6436338,10.3085178 70.2013078,10.1408451 70.9195504,10.1006036 L74.7006833,9.87927565 L74.7006833,8.52112676 L70.712365,8.74245473 C69.476159,8.80952381 68.5162001,9.10965795 67.8324884,9.64285714 C67.1487767,10.1760563 66.8069209,10.8886653 66.8069209,11.7806841 L66.8069209,11.8008048 C66.8069209,12.4312542 66.9571303,12.9845741 67.257549,13.4607646 C67.5579678,13.9369551 67.9775182,14.305835 68.5162001,14.5674044 C69.0548821,14.8289738 69.6798913,14.9597586 70.3912277,14.9597586 Z"
                          id="Path"></path>
                    <polygon id="Path"
                             points="79.6524135 14.7585513 83.8582764 9.88933602 84.1690544 9.88933602 84.1690544 14.7585513 85.9094115 14.7585513 85.9094115 9.88933602 86.2201896 9.88933602 90.4260525 14.7585513 92.7361693 14.7585513 87.6601278 9.01408451 87.6601278 9.45674044 92.570421 4.29577465 90.3742561 4.29577465 86.2201896 8.76257545 85.9094115 8.76257545 85.9094115 4.29577465 84.1690544 4.29577465 84.1690544 8.76257545 83.8582764 8.76257545 79.7042098 4.29577465 77.508045 4.29577465 82.4183381 9.45674044 82.4183381 9.01408451 77.3422967 14.7585513"></polygon>
                    <polygon id="Path"
                             points="94.5179634 14.7585513 96.2997575 14.7585513 102.111307 6.33802817 100.878554 6.98189135 101.748733 6.98189135 101.748733 14.7585513 103.551245 14.7585513 103.551245 4.29577465 101.769451 4.29577465 95.9579017 12.7162978 97.1906546 12.0724346 96.3204761 12.0724346 96.3204761 4.29577465 94.5179634 4.29577465"></polygon>
                    <polygon id="Path"
                             points="114.24201 4.29577465 105.498788 4.29577465 105.498788 5.7444668 108.969143 5.7444668 108.969143 14.7585513 110.771655 14.7585513 110.771655 5.7444668 114.24201 5.7444668"></polygon>
                    <polygon id="Path"
                             points="116.189553 14.7585513 117.971347 14.7585513 123.782896 6.33802817 122.550143 6.98189135 123.420322 6.98189135 123.420322 14.7585513 125.222834 14.7585513 125.222834 4.29577465 123.44104 4.29577465 117.629491 12.7162978 118.862244 12.0724346 117.992065 12.0724346 117.992065 4.29577465 116.189553 4.29577465"></polygon>
                    <path d="M132.660789,14.7585513 L137.301741,14.7585513 C138.448167,14.7585513 139.35115,14.4885983 140.01069,13.9486922 C140.67023,13.408786 141,12.6794098 141,11.7605634 L141,11.7404427 C141,11.3112005 140.906767,10.9289068 140.7203,10.5935614 C140.533833,10.258216 140.273125,9.98323273 139.938175,9.76861167 C139.603225,9.55399061 139.207847,9.41649899 138.752039,9.35613682 L138.752039,9.27565392 C139.249284,9.1750503 139.668834,8.90677398 140.01069,8.47082495 C140.352546,8.03487592 140.523474,7.54862508 140.523474,7.01207243 L140.523474,6.99195171 C140.523474,6.1602951 140.233414,5.50301811 139.653295,5.02012072 C139.073176,4.53722334 138.278966,4.29577465 137.270663,4.29577465 L132.660789,4.29577465 L132.660789,14.7585513 Z M134.463302,13.3098592 L134.463302,10.1207243 L136.825215,10.1207243 C137.612519,10.1207243 138.197818,10.2498323 138.581111,10.5080483 C138.964404,10.7662643 139.15605,11.1636486 139.15605,11.7002012 L139.15605,11.7203219 C139.15605,12.2434608 138.985122,12.6391683 138.643266,12.9074447 C138.301411,13.175721 137.802439,13.3098592 137.146352,13.3098592 L134.463302,13.3098592 Z M134.463302,8.67203219 L134.463302,5.7444668 L137.001322,5.7444668 C137.567629,5.7444668 137.997539,5.86519115 138.291051,6.10663984 C138.584564,6.34808853 138.73132,6.70355466 138.73132,7.17303823 L138.73132,7.19315895 C138.73132,7.69617706 138.567299,8.06841046 138.239255,8.30985915 C137.911212,8.55130785 137.408787,8.67203219 136.731981,8.67203219 L134.463302,8.67203219 Z"
                          id="Shape"></path>
                </g>
            </g>
        </g>
    </g>
</svg>